<svg xmlns="http://www.w3.org/2000/svg"  viewBox="0 0 58 58" width="100px" height="100px"><path fill="#e7eced" d="M54.75,58H3.25C1.455,58,0,56.545,0,54.75V11h58v43.75C58,56.545,56.545,58,54.75,58z"/><rect width="32" height="36" x="21" y="17" fill="#ebba16"/><rect width="18" height="36" x="5" y="17" fill="#366db6"/><path fill="#556080" d="M58,12H0V3.25C0,1.455,1.455,0,3.25,0h51.5C56.545,0,58,1.455,58,3.25V12z"/><rect width="4" height="4" x="4" y="4" fill="#dd352e"/><rect width="4" height="4" x="12" y="4" fill="#ebba16"/><rect width="4" height="4" x="20" y="4" fill="#23a24d"/><path fill="#fff" d="M18,39h-8c-0.552,0-1-0.447-1-1s0.448-1,1-1h8c0.552,0,1,0.447,1,1S18.552,39,18,39z"/><path fill="#fff" d="M18,43h-8c-0.552,0-1-0.447-1-1s0.448-1,1-1h8c0.552,0,1,0.447,1,1S18.552,43,18,43z"/><path fill="#fff" d="M18,47h-8c-0.552,0-1-0.447-1-1s0.448-1,1-1h8c0.552,0,1,0.447,1,1S18.552,47,18,47z"/><path fill="#fff" d="M16.93,25.347c-0.245-1.154-1.204-2.083-2.365-2.295C12.66,22.704,11,24.158,11,26 c0,0.821,0.333,1.56,0.868,2.101c0.163,0.165,0.141,0.444-0.053,0.571c-1.023,0.671-1.718,1.793-1.8,3.08 C11.147,32.537,12.519,33,14,33s2.853-0.463,3.984-1.248c-0.081-1.288-0.777-2.409-1.8-3.081c-0.194-0.127-0.216-0.406-0.052-0.571 C16.806,27.42,17.159,26.423,16.93,25.347z"/><rect width="22" height="16" x="27" y="21" fill="#fff"/><polygon fill="#188439" points="43,26 35,37 37,37 49,37 49,33"/><path fill="#fff" d="M42,42H27c-0.552,0-1-0.447-1-1s0.448-1,1-1h15c0.552,0,1,0.447,1,1S42.552,42,42,42z"/><path fill="#fff" d="M49,42h-3c-0.552,0-1-0.447-1-1s0.448-1,1-1h3c0.552,0,1,0.447,1,1S49.552,42,49,42z"/><path fill="#fff" d="M42,50H27c-0.552,0-1-0.447-1-1s0.448-1,1-1h15c0.552,0,1,0.447,1,1S42.552,50,42,50z"/><path fill="#fff" d="M49,50h-3c-0.552,0-1-0.447-1-1s0.448-1,1-1h3c0.552,0,1,0.447,1,1S49.552,50,49,50z"/><path fill="#fff" d="M49,46H34c-0.552,0-1-0.447-1-1s0.448-1,1-1h15c0.552,0,1,0.447,1,1S49.552,46,49,46z"/><path fill="#fff" d="M30,46h-3c-0.552,0-1-0.447-1-1s0.448-1,1-1h3c0.552,0,1,0.447,1,1S30.552,46,30,46z"/><polygon fill="#23a24d" points="33,30 27,37 39,37"/></svg>